<svg width="20" height="20" viewBox="0 0 20 20" fill="none" xmlns="http://www.w3.org/2000/svg">
<path d="M13.6448 3.03455C10.1561 3.03455 7.28906 5.86213 7.28906 9.37937V19.3104C7.28906 19.6897 7.59994 20.0001 7.97991 20.0001H11.5723C11.9523 20.0001 12.2632 19.6897 12.2632 19.3104V9.65524C12.2632 8.89661 12.8849 8.27592 13.6448 8.27592C14.4048 8.27592 15.0265 8.89661 15.0265 9.65524V19.3104C15.0265 19.6897 15.3374 20.0001 15.7174 20.0001H19.3098C19.6898 20.0001 20.0006 19.6897 20.0006 19.3104V9.37937C20.0006 5.89662 17.1682 3.03455 13.6448 3.03455Z" fill="#505F79"/>
<path d="M2.48705 0C1.10535 0 0 1.10345 0 2.48276C0 3.86207 1.10535 4.96552 2.48705 4.96552C3.86874 4.96552 4.97409 3.86207 4.97409 2.48276C4.97409 1.10345 3.86874 0 2.48705 0Z" fill="#505F79"/>
<path d="M4.28325 6.27588H0.690846C0.310881 6.27588 0 6.58622 0 6.96553V19.3104C0 19.6897 0.310881 20 0.690846 20H4.28325C4.66321 20 4.97409 19.6897 4.97409 19.3104V6.96553C4.97409 6.58622 4.66321 6.27588 4.28325 6.27588Z" fill="#505F79"/>
</svg>
